<?xml version="1.0"?>
<svg xmlns="http://www.w3.org/2000/svg" xmlns:xlink="http://www.w3.org/1999/xlink" xmlns:svgjs="http://svgjs.com/svgjs" version="1.1" width="512" height="512" x="0" y="0" viewBox="0 0 512 512" style="enable-background:new 0 0 512 512" xml:space="preserve" class=""><g><g xmlns="http://www.w3.org/2000/svg"><path d="m0 131.919v364.876c0 8.284 6.716 15 15 15h482c8.284 0 15-6.716 15-15v-364.876zm343.277 109.22c5.857-5.858 15.355-5.858 21.213 0l67.616 67.616c2.829 2.829 4.411 6.671 4.394 10.672s-1.633 7.829-4.487 10.633l-67.616 66.44c-2.92 2.87-6.718 4.301-10.512 4.301-3.884 0-7.764-1.498-10.7-4.487-5.807-5.909-5.723-15.406.187-21.212l56.822-55.834-56.916-56.917c-5.859-5.857-5.859-15.354-.001-21.212zm-125.184 139.65 47.539-134.057c2.77-7.807 11.342-11.892 19.151-9.124 7.808 2.769 11.893 11.343 9.124 19.15l-47.539 134.056c-2.182 6.15-7.965 9.991-14.138 9.991-1.664 0-3.355-.279-5.014-.867-7.807-2.767-11.892-11.342-9.123-19.149zm-128.106-73.302 67.616-66.44c5.909-5.807 15.407-5.722 21.212.186 5.807 5.909 5.723 15.406-.187 21.212l-56.822 55.834 56.916 56.917c5.858 5.858 5.858 15.355 0 21.213-2.929 2.929-6.768 4.394-10.606 4.394s-7.678-1.464-10.606-4.394l-67.616-67.616c-2.829-2.829-4.411-6.671-4.394-10.672s1.633-7.83 4.487-10.634z" fill="#2eabbb" data-original="#000000" style="" class=""/><g><path d="m497 .204h-482c-8.284 0-15 6.716-15 15v86.715h512v-86.715c0-8.284-6.716-15-15-15zm-108.232 65.858c-8.409 0-14.636-6.873-15-15-.363-8.101 7.154-15 15-15 8.409 0 14.636 6.873 15 15 .363 8.1-7.154 15-15 15zm56.464 0c-8.409 0-14.636-6.873-15-15-.363-8.101 7.154-15 15-15 8.409 0 14.636 6.873 15 15 .363 8.1-7.154 15-15 15z" fill="#2eabbb" data-original="#000000" style="" class=""/></g></g></g></svg>
