<?xml version="1.0"?>
<svg xmlns="http://www.w3.org/2000/svg" xmlns:xlink="http://www.w3.org/1999/xlink" xmlns:svgjs="http://svgjs.com/svgjs" version="1.1" width="512" height="512" x="0" y="0" viewBox="0 0 512 512" style="enable-background:new 0 0 512 512" xml:space="preserve" class=""><g>
<g xmlns="http://www.w3.org/2000/svg">
	<g>
		<path d="M464,0H144c-17.632,0-32,14.368-32,32v384H32c-8.832,0-16,7.168-16,16c0,44.096,35.904,80,80,80h320    c44.096,0,80-35.904,80-80V32C496,14.368,481.632,0,464,0z M96,480c-20.864,0-38.656-13.376-45.28-32H337.6    c2.4,11.808,7.424,22.688,14.432,32H96z M464,432c0,26.464-21.536,48-48,48s-48-21.536-48-48c0-8.832-7.168-16-16-16H144V32h320    V432z" fill="#2eabbb" data-original="#000000" style="" class=""/>
	</g>
</g>
<g xmlns="http://www.w3.org/2000/svg">
	<g>
		<path d="M416,128h-96c-8.832,0-16,7.168-16,16c0,8.832,7.168,16,16,16h96c8.832,0,16-7.168,16-16C432,135.168,424.832,128,416,128    z" fill="#2eabbb" data-original="#000000" style="" class=""/>
	</g>
</g>
<g xmlns="http://www.w3.org/2000/svg">
	<g>
		<path d="M416,256h-96c-8.832,0-16,7.168-16,16c0,8.832,7.168,16,16,16h96c8.832,0,16-7.168,16-16C432,263.168,424.832,256,416,256    z" fill="#2eabbb" data-original="#000000" style="" class=""/>
	</g>
</g>
<g xmlns="http://www.w3.org/2000/svg">
	<g>
		<path d="M256,96h-64c-8.832,0-16,7.168-16,16v64c0,8.832,7.168,16,16,16h64c8.832,0,16-7.168,16-16v-64    C272,103.168,264.832,96,256,96z M240,160h-32v-32h32V160z" fill="#2eabbb" data-original="#000000" style="" class=""/>
	</g>
</g>
<g xmlns="http://www.w3.org/2000/svg">
	<g>
		<path d="M256,224h-64c-8.832,0-16,7.168-16,16v64c0,8.832,7.168,16,16,16h64c8.832,0,16-7.168,16-16v-64    C272,231.168,264.832,224,256,224z M240,288h-32v-32h32V288z" fill="#2eabbb" data-original="#000000" style="" class=""/>
	</g>
</g>
<g xmlns="http://www.w3.org/2000/svg">
</g>
<g xmlns="http://www.w3.org/2000/svg">
</g>
<g xmlns="http://www.w3.org/2000/svg">
</g>
<g xmlns="http://www.w3.org/2000/svg">
</g>
<g xmlns="http://www.w3.org/2000/svg">
</g>
<g xmlns="http://www.w3.org/2000/svg">
</g>
<g xmlns="http://www.w3.org/2000/svg">
</g>
<g xmlns="http://www.w3.org/2000/svg">
</g>
<g xmlns="http://www.w3.org/2000/svg">
</g>
<g xmlns="http://www.w3.org/2000/svg">
</g>
<g xmlns="http://www.w3.org/2000/svg">
</g>
<g xmlns="http://www.w3.org/2000/svg">
</g>
<g xmlns="http://www.w3.org/2000/svg">
</g>
<g xmlns="http://www.w3.org/2000/svg">
</g>
<g xmlns="http://www.w3.org/2000/svg">
</g>
</g></svg>
